<svg width="84" height="106" viewBox="0 0 84 106" fill="none" xmlns="http://www.w3.org/2000/svg">
<path d="M75.75 98H52.5655C56.4662 94.523 60.1449 90.8047 63.5799 86.867C76.4481 72.0681 83.25 56.4671 83.25 41.75C83.25 30.8098 78.904 20.3177 71.1682 12.5818C63.4323 4.84597 52.9402 0.5 42 0.5C31.0598 0.5 20.5677 4.84597 12.8318 12.5818C5.09597 20.3177 0.75 30.8098 0.75 41.75C0.75 56.4671 7.55191 72.0681 20.4201 86.867C23.8551 90.8047 27.5338 94.523 31.4345 98H8.25C7.25544 98 6.30161 98.3951 5.59835 99.0983C4.89509 99.8016 4.5 100.755 4.5 101.75C4.5 102.745 4.89509 103.698 5.59835 104.402C6.30161 105.105 7.25544 105.5 8.25 105.5H75.75C76.7446 105.5 77.6984 105.105 78.4016 104.402C79.1049 103.698 79.5 102.745 79.5 101.75C79.5 100.755 79.1049 99.8016 78.4016 99.0983C77.6984 98.3951 76.7446 98 75.75 98ZM42.0001 26.75C44.9668 26.75 47.8669 27.6297 50.3337 29.278C52.8004 30.9262 54.723 33.2689 55.8583 36.0097C56.9936 38.7506 57.2907 41.7666 56.7119 44.6764C56.1331 47.5861 54.7045 50.2588 52.6067 52.3566C50.5089 54.4544 47.8362 55.883 44.9265 56.4618C42.0168 57.0406 39.0008 56.7435 36.2599 55.6082C33.519 54.4729 31.1763 52.5503 29.5281 50.0836C27.8799 47.6168 27.0001 44.7167 27.0001 41.75C27.0001 39.7802 27.3881 37.8296 28.1419 36.0097C28.8957 34.1898 30.0006 32.5362 31.3935 31.1434C32.7864 29.7505 34.4399 28.6456 36.2598 27.8918C38.0797 27.138 40.0303 26.75 42.0001 26.75Z" fill="#046DBF"/>
</svg>
