<svg width="63" height="63" fill="none" xmlns="http://www.w3.org/2000/svg"><path d="M12.475 45.508a31.37 31.37 0 003.277-14.006 15.722 15.722 0 015.906-12.296m9.844 12.296a47.037 47.037 0 01-5.9 22.882" stroke="#099DBA" stroke-width="2" stroke-linecap="round" stroke-linejoin="round"/><path d="M23.627 31.502a7.875 7.875 0 1115.75 0 54.911 54.911 0 01-5.236 23.48" stroke="#099DBA" stroke-width="2" stroke-linecap="round" stroke-linejoin="round"/><path d="M53.788 45.283a71.229 71.229 0 001.339-13.781 23.625 23.625 0 00-47.25 0 23.587 23.587 0 01-1.345 7.875m16.307 0a39.12 39.12 0 01-4.458 11.774" stroke="#099DBA" stroke-width="2" stroke-linecap="round" stroke-linejoin="round"/><path d="M29.533 15.874a15.763 15.763 0 0117.719 15.628c0 2.633-.162 5.263-.487 7.875m-1.498 7.875a62.264 62.264 0 01-1.275 4.307" stroke="#099DBA" stroke-width="2" stroke-linecap="round" stroke-linejoin="round"/></svg>