<svg width="21" height="22" fill="none" xmlns="http://www.w3.org/2000/svg"><path d="M10.134 11.688c1.4 0 2.534-1.232 2.534-2.75 0-1.52-1.135-2.75-2.534-2.75-1.4 0-2.533 1.23-2.533 2.75 0 1.518 1.134 2.75 2.533 2.75z" stroke="#BDF8F9" stroke-width="2" stroke-linecap="round" stroke-linejoin="round"/><path d="M16.467 8.938c0 6.187-6.333 11-6.333 11S3.8 15.125 3.8 8.938c0-1.824.667-3.573 1.855-4.862 1.188-1.29 2.799-2.013 4.478-2.013 1.68 0 3.291.724 4.479 2.013 1.188 1.29 1.855 3.038 1.855 4.862v0z" stroke="#BDF8F9" stroke-width="2" stroke-linecap="round" stroke-linejoin="round"/></svg>