<svg width="80" height="80" fill="none" xmlns="http://www.w3.org/2000/svg"><path d="M40 80c22.091 0 40-17.909 40-40S62.091 0 40 0 0 17.909 0 40s17.909 40 40 40z" fill="url(#paint0_linear_82_857)"/><path d="M32.666 58.333c-1.295 0-1.075-.49-1.522-1.723l-3.811-12.541 29.333-17.403" fill="#C8DAEA"/><path d="M32.667 58.333c1 0 1.442-.457 2-1L40 52.147l-6.652-4.011" fill="#A9C9DD"/><path d="M33.347 48.137l16.12 11.91c1.84 1.014 3.167.489 3.625-1.708l6.562-30.921c.672-2.694-1.027-3.915-2.786-3.117l-38.53 14.857c-2.63 1.055-2.615 2.523-.48 3.176l9.888 3.086 22.89-14.441c1.081-.655 2.073-.303 1.26.42" fill="url(#paint1_linear_82_857)"/><defs><linearGradient id="paint0_linear_82_857" x1="30.004" y1="3.336" x2="10.004" y2="50" gradientUnits="userSpaceOnUse"><stop stop-color="#37AEE2"/><stop offset="1" stop-color="#1E96C8"/></linearGradient><linearGradient id="paint1_linear_82_857" x1="34.993" y1="42.457" x2="39.267" y2="56.282" gradientUnits="userSpaceOnUse"><stop stop-color="#EFF7FC"/><stop offset="1" stop-color="#fff"/></linearGradient></defs></svg>