<svg width="80" height="80" fill="none" xmlns="http://www.w3.org/2000/svg"><path d="M40 80c22.091 0 40-17.909 40-40S62.091 0 40 0 0 17.909 0 40s17.909 40 40 40z" fill="#25D366"/><path fill-rule="evenodd" clip-rule="evenodd" d="M41.318 62.254h-.01a23.76 23.76 0 01-11.366-2.895l-12.609 3.307 3.374-12.325a23.742 23.742 0 01-3.175-11.89c.006-13.115 10.676-23.785 23.786-23.785 6.363.003 12.335 2.48 16.825 6.976a23.64 23.64 0 016.96 16.827c-.005 13.111-10.67 23.78-23.785 23.785zm-10.792-7.201l.722.428a19.74 19.74 0 0010.062 2.756h.008c10.896 0 19.765-8.869 19.77-19.77a19.65 19.65 0 00-5.785-13.985 19.635 19.635 0 00-13.977-5.798c-10.905 0-19.773 8.868-19.778 19.768a19.723 19.723 0 003.023 10.52l.47.748-1.997 7.296 7.482-1.963zM52.487 43.59c.414.2.694.335.814.535.148.248.148 1.438-.346 2.826-.496 1.389-2.87 2.655-4.012 2.826-1.024.153-2.32.217-3.743-.236a33.989 33.989 0 01-3.389-1.251c-5.571-2.406-9.336-7.806-10.048-8.827l-.104-.147-.005-.007c-.314-.42-2.422-3.231-2.422-6.141 0-2.738 1.345-4.173 1.964-4.833l.116-.125c.545-.595 1.189-.744 1.585-.744.396 0 .793.004 1.14.021.042.002.086.002.132.002.347-.002.778-.005 1.204 1.018.164.394.404.978.657 1.593.511 1.245 1.076 2.621 1.176 2.82.148.298.247.645.05 1.041l-.084.17c-.15.303-.258.527-.511.822-.1.116-.202.24-.305.366a9.625 9.625 0 01-.587.675c-.297.296-.607.618-.26 1.213.347.595 1.54 2.541 3.306 4.117a15.35 15.35 0 004.387 2.773c.163.07.295.128.392.177.594.297.941.248 1.288-.149.347-.397 1.486-1.735 1.882-2.33.396-.595.792-.496 1.337-.298.545.199 3.467 1.636 4.061 1.934.116.058.224.11.325.159z" fill="#FDFDFD"/></svg>